# xmcd
#
# Track frame offsets:
#	150
#	15292
#	24370
#	35377
#	49865
#	63767
#	78022
#	89600
#	109022
#	122242
#
# Disc length: 1805 seconds
#
# Revision: 11
# Processed by: cddbd v1.5.1PL0 Copyright (c) Steve Scherf et al.
# Submitted via: MusicManager 7.2.0.0 
#
DISCID=6c070b0a
DTITLE=Marty Stuart - Tempted
DYEAR=1991
DGENRE=Country
TTITLE0=I'm Blue, I'm Lonesome
TTITLE1=Paint The Town Tonight
TTITLE2=Till I Found You
TTITLE3=Tempted
TTITLE4=Blue Train
TTITLE5=Little Things
TTITLE6=Half A Heart
TTITLE7=I Want A Woman
TTITLE8=Burn Me Down
TTITLE9=Get Back To The Country
EXTD=ID3G: 2
EXTT0=
EXTT1=
EXTT2=
EXTT3=
EXTT4=
EXTT5=
EXTT6=
EXTT7=
EXTT8=
EXTT9=
PLAYORDER=
